<svg width="102" height="29" viewBox="0 0 102 29" fill="none" xmlns="http://www.w3.org/2000/svg">
<path d="M4.12467 15.0524C4.12467 15.6048 4.26331 16.1456 4.5406 16.675C4.841 17.1813 5.24538 17.4345 5.75374 17.4345C6.28521 17.4345 6.68959 17.377 6.96688 17.2619C7.26728 17.1238 7.44058 17.0548 7.4868 17.0548C7.62544 17.0548 7.69476 17.1468 7.69476 17.331C7.69476 17.5151 7.55612 17.6992 7.27883 17.8833C7.02465 18.0444 6.55095 18.125 5.85772 18.125C5.18761 18.125 4.63303 17.8488 4.19399 17.2964C3.75495 16.744 3.50077 16.1341 3.43145 15.4667V25.8929H0V9.90833H3.43145V14.9488C3.52388 13.4988 4.24021 12.2444 5.58044 11.1857C6.92066 10.104 8.31866 9.5631 9.77443 9.5631C11.2533 9.5631 12.3047 10.0119 12.9286 10.9095C13.5756 11.7841 13.98 13.05 14.1417 14.7071C14.2342 13.3262 14.9505 12.1294 16.2907 11.1167C17.654 10.081 19.052 9.5631 20.4847 9.5631C22.0098 9.5631 23.1305 10.0925 23.8468 11.1512C24.5863 12.1869 24.956 14.4079 24.956 17.8143V25.8929H21.4899V18.7119C21.4899 15.996 21.3397 13.9706 21.0393 12.6357C20.762 11.3008 20.219 10.6333 19.4102 10.6333C18.3935 10.6333 17.3768 11.1052 16.36 12.0488C15.3433 12.9925 14.8349 13.9937 14.8349 15.0524C14.8349 15.6048 14.9736 16.1456 15.2509 16.675C15.5513 17.1813 16.025 17.4345 16.672 17.4345C17.0648 17.4345 17.3999 17.377 17.6772 17.2619C17.9776 17.1238 18.1509 17.0548 18.1971 17.0548C18.3357 17.0548 18.405 17.1468 18.405 17.331C18.405 17.5151 18.2664 17.6992 17.9891 17.8833C17.7349 18.0444 17.2843 18.125 16.6373 18.125C16.0134 18.125 15.482 17.9063 15.0429 17.469C14.6039 17.0087 14.3266 16.4218 14.211 15.7083C14.2342 16.1456 14.2457 16.8476 14.2457 17.8143V25.8929H10.7796V18.7119C10.7796 15.996 10.6294 13.9706 10.329 12.6357C10.0517 11.3008 9.50869 10.6333 8.69993 10.6333C7.68321 10.6333 6.66648 11.1052 5.64976 12.0488C4.63303 12.9925 4.12467 13.9937 4.12467 15.0524Z" fill="white"/>
<path d="M34.1333 26.2381C32.4696 26.2381 30.9907 25.7778 29.6967 24.8571C28.4258 23.9135 27.7903 22.6131 27.7903 20.956C27.7903 19.9893 28.0214 19.1492 28.4836 18.4357C28.9688 17.7222 29.5812 17.1929 30.3206 16.8476C31.6839 16.1571 33.0126 15.8119 34.3066 15.8119C35.6006 15.8119 37.068 16.1571 38.7086 16.8476C38.6855 14.1778 38.3504 12.4056 37.7034 11.531C37.0795 10.6333 36.109 10.1845 34.7919 10.1845C33.4748 10.1845 32.3309 10.4262 31.3604 10.9095C30.413 11.3929 29.9393 12.0373 29.9393 12.8429C29.9393 13.119 29.8122 13.2571 29.5581 13.2571C29.327 13.2571 29.2114 13.1306 29.2114 12.8774C29.2114 11.9107 29.7429 11.1167 30.8059 10.4952C31.8919 9.85079 33.4863 9.52857 35.5891 9.52857C39.9795 9.52857 42.1747 12.1063 42.1747 17.2619V25.8929H38.7086V23.1655C38.5468 24.0631 38.0269 24.7996 37.1488 25.375C36.2708 25.9504 35.2656 26.2381 34.1333 26.2381ZM37.1835 19.7821C38.0154 20.3575 38.5237 21.1516 38.7086 22.1643V17.469C37.0449 16.8016 35.6815 16.4679 34.6186 16.4679C33.5787 16.4679 32.7584 16.9052 32.1576 17.7798C31.5568 18.6544 31.2565 19.7246 31.2565 20.9905C31.2565 22.2563 31.4991 23.3381 31.9843 24.2357C32.4927 25.1103 33.2437 25.5476 34.2373 25.5476C35.254 25.5476 36.1437 25.2944 36.9062 24.7881C37.6688 24.2587 38.05 23.6373 38.05 22.9238C38.05 21.681 37.6341 20.8294 36.8022 20.369C36.4556 20.1619 36.2823 19.9663 36.2823 19.7821C36.2823 19.598 36.3632 19.506 36.5249 19.506C36.6867 19.506 36.9062 19.598 37.1835 19.7821Z" fill="white"/>
<path d="M57.7754 11.2202C57.7754 11.4734 57.6715 11.669 57.4635 11.8071C57.2786 11.9452 57.036 12.0143 56.7356 12.0143C56.4352 12.0143 56.1926 11.9337 56.0077 11.7726C55.8229 11.5885 55.6958 11.3929 55.6264 11.1857C55.5802 10.9786 55.4416 10.7944 55.2105 10.6333C54.9794 10.4492 54.6559 10.3571 54.24 10.3571C53.2233 10.3571 52.2759 11.0937 51.3978 12.5667C50.5197 14.0397 50.0114 15.7083 49.8727 17.5726V25.8929H46.4066V9.90833H49.8727V13.9821C50.4273 12.6472 51.1436 11.5425 52.0217 10.6679C52.9229 9.77024 53.8241 9.32143 54.7253 9.32143C55.6264 9.32143 56.3543 9.48254 56.9089 9.80476C57.4866 10.104 57.7754 10.5758 57.7754 11.2202Z" fill="white"/>
<path d="M73.364 29C72.1162 29 71.1457 28.5857 70.4525 27.7571C69.7823 26.9516 69.3433 25.9504 69.1353 24.7536C68.9505 23.5567 68.7887 22.3484 68.6501 21.1286C68.3497 18.1135 67.4485 16.4679 65.9465 16.1917L63.243 19.7476V25.8929H59.7768V0H63.243V18.6083L67.6102 12.8429C68.4883 11.669 69.5166 10.7139 70.6951 9.97738C71.8736 9.24087 73.0867 8.87262 74.3345 8.87262C74.7735 8.87262 74.9931 8.97619 74.9931 9.18333C74.9931 9.45952 74.8544 9.59762 74.5771 9.59762C73.9301 9.59762 73.364 9.64365 72.8787 9.73571C72.4166 9.80476 71.7234 10.1385 70.7991 10.7369C69.8748 11.3353 68.9736 12.2099 68.0955 13.3607L66.3971 15.5702C66.9055 15.5242 67.2405 15.5012 67.4023 15.5012C68.5808 15.5012 69.5282 15.8234 70.2445 16.4679C70.9839 17.0893 71.4576 17.8718 71.6656 18.8155C71.8967 19.7591 72.07 20.7948 72.1855 21.9226C72.3242 23.0274 72.405 24.0516 72.4281 24.9952C72.4744 25.9389 72.6477 26.7214 72.9481 27.3429C73.2485 27.9873 73.6759 28.3095 74.2305 28.3095C74.7851 28.3095 75.2703 28.1484 75.6863 27.8262C76.1022 27.527 76.4257 27.2163 76.6568 26.894C76.8879 26.5948 77.0496 26.4452 77.142 26.4452C77.2345 26.4452 77.2807 26.4913 77.2807 26.5833C77.2807 26.6984 77.246 26.825 77.1767 26.9631C76.4835 28.321 75.2126 29 73.364 29Z" fill="white"/>
<path d="M81.1386 24.6845C81.4621 24.9147 81.8665 25.1103 82.3518 25.2714C82.8601 25.4325 83.4725 25.5131 84.1888 25.5131C84.9051 25.5131 85.6677 25.352 86.4764 25.0298C87.2852 24.6845 87.8513 24.1782 88.1748 23.5107H89.18C88.2788 25.329 86.384 26.2381 83.4956 26.2381C81.2773 26.2381 79.394 25.4556 77.8458 23.8905C76.3207 22.3024 75.5582 20.323 75.5582 17.9524C75.5582 15.5587 76.367 13.5679 77.9845 11.9798C79.602 10.3687 81.3582 9.5631 83.253 9.5631C85.1709 9.5631 86.6729 10.0925 87.7589 11.1512C88.8681 12.1869 89.4226 13.4183 89.4226 14.8452C89.4226 16.2722 88.8334 17.5381 87.6549 18.6429C86.4764 19.7476 84.9282 20.3 83.0103 20.3C81.0924 20.3 79.7522 19.4829 78.9896 17.8488C79.0128 18.0099 79.0359 18.3552 79.059 18.8845C79.1052 19.4139 79.1398 19.8282 79.1629 20.1274C79.1861 20.4266 79.2438 20.8409 79.3363 21.3702C79.4518 21.8996 79.5673 22.3254 79.6829 22.6476C79.8215 22.9698 80.0179 23.3381 80.2721 23.7524C80.5263 24.1437 80.8151 24.4544 81.1386 24.6845ZM86.4418 14.6726C86.4418 11.7036 85.3095 10.219 83.045 10.219C81.9358 10.219 81.0231 10.7599 80.3068 11.8417C79.6135 12.9004 79.2207 14.1893 79.1283 15.7083C79.4056 15.0639 79.8215 14.546 80.3761 14.1548C80.9538 13.7635 81.543 13.5679 82.1438 13.5679C82.7677 13.5679 83.0797 13.6829 83.0797 13.9131C83.0797 14.1202 82.941 14.2238 82.6637 14.2238C81.6008 14.2929 80.8151 14.5575 80.3068 15.0179C79.8215 15.4782 79.5789 16.0996 79.5789 16.8821C79.5789 17.6647 79.8562 18.3321 80.4108 18.8845C80.9884 19.4139 81.6586 19.6786 82.4211 19.6786C83.6689 19.6786 84.651 19.1837 85.3673 18.194C86.0836 17.1814 86.4418 16.0075 86.4418 14.6726Z" fill="white"/>
<path d="M90.5272 10.5988V9.90833H93.716V5.17857H97.1821V9.90833H100.822V10.5988H97.1821V21.2667C97.1821 24.1206 97.806 25.5476 99.0538 25.5476C99.5391 25.5476 99.9897 25.398 100.406 25.0988C100.822 24.7766 101.145 24.4659 101.376 24.1667C101.607 23.8444 101.769 23.6833 101.861 23.6833C101.954 23.6833 102 23.7409 102 23.856C102 23.948 101.965 24.0631 101.896 24.2012C101.203 25.5591 99.9319 26.2381 98.0833 26.2381C96.6044 26.2381 95.5068 25.6742 94.7905 24.5464C94.0742 23.4186 93.716 21.9111 93.716 20.0238V10.5988H90.5272Z" fill="white"/>
</svg>
